<svg id="Слой_1" data-name="Слой 1" xmlns="http://www.w3.org/2000/svg" viewBox="0 0 412.67 115.5"><defs><style>.cls-1{fill:none;}.cls-1,.cls-2{stroke:#201600;stroke-miterlimit:10;stroke-width:5px;}</style></defs><title>logo</title><polygon class="cls-1" points="56.24 2.21 101.84 113.02 156.81 113.02 110.53 2.21 56.24 2.21"/><polygon class="cls-1" points="155.92 2.21 201.52 113.02 257.49 113.02 211.22 2.21 155.92 2.21"/><polygon class="cls-1" points="255.93 2.21 301.52 113.02 357.5 113.02 311.23 2.21 255.93 2.21"/><polygon class="cls-2" points="208.5 2.21 159.48 113.02 104 113.02 153.75 2.21 208.5 2.21"/><polygon class="cls-2" points="308.5 2.21 259.49 113.02 204 113.02 253.75 2.21 308.5 2.21"/><polygon class="cls-2" points="408.51 2.21 359.5 113.02 304.01 113.02 353.76 2.21 408.51 2.21"/><polygon class="cls-2" points="108.49 2.21 59.48 113.02 3.99 113.02 53.74 2.21 108.49 2.21"/></svg>